<svg width="960" height="640" viewBox="0 0 960 640" fill="none" xmlns="http://www.w3.org/2000/svg">
<path d="M402.962 10.0638C404.486 9.93559 406.013 9.88203 407.542 9.90317C409.071 9.92431 410.596 10.02 412.117 10.1903C413.637 10.3607 415.145 10.6048 416.641 10.9226C418.137 11.2406 419.614 11.6307 421.072 12.0931C428.734 14.5851 437.294 19.6514 440.966 27.1511C443.195 31.7025 443.1 36.7931 441.488 41.5254C436.797 55.2999 414.092 72.4914 401.387 78.7365C416.718 83.5838 428.86 90.9764 439.411 103.264C451.139 116.923 458.084 134.546 460.836 152.193C461.476 156.295 462.182 160.601 461.814 164.758C461.661 166.495 461.378 167.371 460.055 168.453C454.738 169.544 447.32 165.542 441.824 164.788C441.132 166.439 442.332 168.023 441.422 169.513C435.07 170.685 431.557 164.685 426.454 162.289C422.019 160.206 416.882 160.66 412.407 162.389C404.597 165.405 399.196 173.044 395.912 180.427C395.592 181.136 395.29 181.853 395.007 182.578C394.723 183.303 394.457 184.034 394.21 184.771C393.963 185.509 393.734 186.253 393.523 187.002C393.313 187.751 393.122 188.504 392.949 189.263C392.776 190.022 392.623 190.785 392.488 191.551C392.354 192.318 392.239 193.087 392.142 193.859C392.046 194.631 391.969 195.405 391.912 196.181C391.855 196.957 391.817 197.734 391.798 198.512C391.779 199.29 391.78 200.068 391.8 200.846C391.821 201.624 391.86 202.401 391.919 203.177C391.978 203.952 392.056 204.726 392.154 205.498C392.251 206.27 392.368 207.039 392.504 207.806C392.64 208.572 392.795 209.334 392.969 210.092C393.144 210.851 393.337 211.604 393.548 212.353C393.76 213.102 393.99 213.845 394.239 214.582C394.488 215.319 394.755 216.05 395.04 216.774C391.752 218.492 377.842 222.337 374.458 221.137C373.687 220.864 373.833 220.754 373.546 220.067C373.709 219.623 373.854 219.202 374.122 218.808C375.821 216.313 385.306 214.948 388.341 214.503C386.18 205.085 385.616 195.992 387.775 186.515C390.716 173.608 397.537 163.906 408.7 156.934C408.226 156.742 407.747 156.554 407.261 156.397C405.409 155.796 397.534 153.262 396.179 153.954C396.364 154.703 396.57 155.43 396.493 156.208C396.446 156.684 396.543 156.691 396.139 156.926C394.476 157.893 391.332 157.067 389.56 156.714C379.244 146.983 361.199 144.84 347.642 141.569C344.046 149.081 340.313 167.649 333.083 171.366C332.127 171.858 330.997 172.102 329.965 171.685C325.831 170.014 325.444 163.022 323.977 159.499C322.502 155.956 319.43 152.389 315.788 150.997C312.518 149.749 309.044 150.45 305.941 151.821C302.174 153.487 299.545 157.435 298.108 161.177C295.002 169.264 295.813 178.849 301.848 185.367C304.576 188.313 308.889 190.908 310.073 194.913C310.94 197.844 310.402 201.358 310.691 204.406C311.521 213.166 313.932 222.755 317.545 230.779C323.234 243.41 333.291 254.685 346.507 259.554C360.209 264.602 374.843 262.213 387.774 256.24C413.43 244.387 431.147 219.437 441.131 193.713C443.13 188.561 443.781 182.942 445.748 177.813C446.342 176.264 447.221 174.309 448.815 173.626C449.039 174.428 449.238 174.796 449.867 175.348C451.195 176.513 452.306 177.202 452.647 179.057C453.297 182.59 451.162 187.286 450.02 190.564C444.688 205.866 437.997 219.911 428.103 232.834C414.72 250.314 394.572 265.806 372.252 268.762C374.072 287.494 376.848 306.121 379.261 324.781L392.226 426.73C392.825 431.67 393.382 436.625 394.146 441.542C394.945 446.69 397.206 453.626 396.609 458.695C396.434 460.184 395.989 460.96 394.792 461.826C393.238 462.284 391.932 461.804 390.413 461.418C389.168 455.222 388.735 448.797 387.917 442.527C379.985 445.766 378.487 448.214 373.777 454.95C373.037 456.009 372.107 457.063 370.792 457.297C370.08 456.606 370.016 456.383 369.888 455.38C369.484 452.203 370.55 449.079 372.472 446.575C376.055 441.905 381.647 438.854 387.428 438.094C385.127 422.445 382.172 406.186 381.158 390.411C377.491 391.377 372.479 391.493 368.936 390.032C367.79 389.559 366.591 388.754 366.163 387.534C365.838 386.611 365.962 386.469 366.356 385.642C369.534 383.775 376.451 385.268 380.292 385.38C376.715 361.872 373.882 338.172 370.805 314.588C369.094 301.475 366.571 288.03 365.657 274.867C362.253 276.654 358.347 279.042 354.609 279.917C351.85 280.562 346.417 280.462 344.164 282.081C342.047 285.142 341.939 289.148 341.414 292.732C341.038 295.302 340.928 298.213 338.721 299.86C336.11 299.598 334.969 297.878 333.375 295.967C333.357 290.926 334.421 286.446 335.685 281.614C325.133 279.68 316.292 277.256 307.961 270.012C305.018 274.777 302.214 279.6 299.783 284.648C304.805 289.627 309.417 295.776 311.217 302.733C311.624 304.303 311.575 305.02 310.764 306.389C310.076 306.644 309.647 306.902 308.895 306.814C305.489 306.413 298.68 293.539 296.277 290.438C292.348 296.509 288.932 303.049 285.37 309.347L270.644 334.935L249.371 372.244C242.662 383.864 235.716 395.373 229.367 407.195C231.19 408.069 233.019 408.947 234.667 410.128C235.156 410.477 235.627 410.849 236.079 411.244C236.531 411.64 236.962 412.057 237.373 412.496C237.783 412.935 238.17 413.393 238.535 413.871C238.899 414.349 239.239 414.844 239.554 415.355C239.869 415.867 240.157 416.393 240.419 416.934C240.681 417.475 240.916 418.027 241.123 418.591C241.33 419.155 241.508 419.728 241.657 420.31C241.806 420.892 241.926 421.48 242.017 422.074C242.331 424.267 242.336 426.603 240.941 428.429C239.759 428.663 239.321 428.23 238.848 427.115C235.312 418.79 234.88 416.127 226.457 411.635C224.231 416.446 221.299 421.003 218.632 425.584L206.856 446.075C197.345 462.665 188.341 479.814 178.152 495.972C178.984 496.41 179.81 496.864 180.595 497.384C185.016 500.316 188.531 505.753 189.514 510.956C189.75 512.206 189.865 513.173 189.129 514.232C185.345 514.281 181.418 505.886 179.062 503.264C178.095 502.187 176.79 501.344 175.6 500.532C172.417 507.294 167.101 516.805 162.715 522.773L203.898 522.748C214.863 522.784 225.95 523.183 236.9 522.6C235.628 517.709 236.238 512.585 237.626 507.775C238.25 505.615 239.291 502.394 241.493 501.376C242.547 500.888 243.357 501.064 244.402 501.436C245.954 503.934 243.829 509.797 243.27 512.669C242.775 515.214 241.908 519.774 243.447 522.066C244.451 522.783 245.566 522.791 246.761 522.856C253.049 523.197 259.545 522.795 265.863 522.791L308.051 522.709C308.215 516.616 306.513 514.289 305.978 509.127C305.875 508.13 306.277 507.692 306.849 506.933L307.808 506.816C309.038 507.291 309.908 507.986 310.803 508.931C314.558 512.895 314.219 517.872 314.051 522.965C322.922 522.182 332.167 523.215 341.066 523.616C344.898 517.033 347.15 509.163 350.013 502.095C352.283 496.493 363.486 470.384 366.911 467.624C368.056 466.701 369.509 466.122 370.977 466.251C372.68 466.401 373.902 469.61 374.955 470.821C377.906 471.275 382.124 469.74 384.986 468.983C388.42 468.074 391.851 467.301 394.994 465.597C408.745 458.143 412.689 439.556 426.83 431.275C439.712 423.731 458.978 426.626 472.725 430.321C482.29 432.891 497.233 438.424 502.238 447.388C503.447 449.554 504.486 452.506 503.668 454.955C503.151 456.501 501.967 457.477 500.562 458.2C493.615 461.77 484.486 458.425 477.657 456.171C476.361 456.691 474.709 457.604 473.324 457.675C472.372 457.723 472.178 457.46 471.525 456.873C471.664 455.962 471.719 455.249 471.579 454.337C468.192 452.298 462.837 451.49 458.993 450.432C472.143 457.139 485.222 471.294 490.319 485.355C491.239 487.891 492.564 492.723 491.255 495.274C490.746 496.265 489.952 496.87 488.845 497.104C484.43 498.034 479.9 495.03 476.278 492.939C476.679 494.495 477.043 496.06 477.372 497.633C477.84 499.939 478.163 503.299 476.679 505.303C475.891 506.367 474.702 506.819 473.417 506.93C466.329 507.541 458.774 499.812 453.889 495.526C455.414 498.754 456.676 501.762 457.201 505.323C457.488 507.27 457.602 509.657 456.261 511.263C455.52 512.152 454.213 512.536 453.097 512.588C445.804 512.93 430.061 496.928 424.233 491.816C421.907 497.722 419.416 503.109 415.213 507.977C409.006 515.167 399.554 517.973 390.352 518.709C388.441 517.937 386.955 516.898 385.312 515.67C392.188 506.882 400.294 512.437 409.101 504.78C414.456 500.123 419.134 486.191 422.673 485.06C427.541 483.506 445.272 505.283 451.507 507.821C452.142 507.625 452.211 507.756 452.545 507.108C455.245 501.873 443.237 489.28 441.796 484.285C441.668 483.841 441.953 483.592 442.161 483.2C449.854 479.993 462.26 500.828 471.588 501.521C472.248 501.193 472.625 501.212 472.906 500.486C473.482 498.999 472.579 496.857 471.958 495.468C470.211 491.563 467.537 487.672 464.526 484.633C461.194 481.271 455.007 477.944 453.363 473.447C453.096 472.716 453.218 472.67 453.537 471.965C461.471 469.244 477.433 490.389 485.364 491.82C486.159 491.964 486.03 491.88 486.616 491.472C487.707 483.448 470.483 466.386 464.469 461.494C460.668 458.402 452.763 454.087 450.282 450.105C449.593 448.998 449.592 448.523 449.858 447.293C454.996 441.983 475.088 450.782 481.757 452.626C484.584 453.408 487.394 453.71 490.308 453.914C491.905 454.026 493.906 454.305 495.397 453.659C496.338 453.252 496.378 453.02 496.763 452.135C496.582 451.03 496.178 450.282 495.463 449.42C487.208 439.459 465.54 435.384 453.207 434.351C429.69 432.579 425.138 441.951 412.875 459.166C410.376 462.673 407.564 466.495 404.039 469.017C397.797 473.484 389.856 476.065 382.457 477.816C378.803 478.68 375.008 479.338 371.548 480.825C370.058 484.456 369.628 488.656 368.892 492.509C366.951 502.673 365.67 513.164 363.237 523.197C368.69 523.324 374.232 522.889 379.693 522.782C386.281 522.652 392.896 522.803 399.488 522.807L475.017 523.139C474.923 519.292 474.456 515.462 474.372 511.603C475.076 510.299 476.094 507.873 477.181 506.951C480.297 504.309 508.677 505.403 514.011 506.048L513.587 505.628C509.504 501.574 493.054 485.742 493.033 480.318L493.823 480.157C500.512 482.576 514.625 499.738 520.599 505.902C522.805 505.844 525.099 506.109 527.291 505.864C528.086 505.775 528.605 505.876 529.109 505.239C528.228 500.462 513.856 482.874 510.752 476.749C510.255 475.768 510.26 475.025 510.622 474.005C510.886 473.26 511.061 473.3 511.769 472.953C518.8 474.03 531.825 498.042 537.975 503.948C540.777 506.639 544.452 505.942 548.026 505.844C543.541 498.111 539.11 490.422 533.952 483.106C529.439 476.705 524.104 470.452 520.129 463.736C520.154 462.539 520.141 462.535 520.912 461.623C525.456 461.628 554.992 494.664 560.015 494.999C560.824 495.053 560.868 494.813 561.47 494.347C563.357 487.806 547.354 469.575 542.722 464.786C540.469 462.455 531.69 455.763 531.16 453.492C531.006 452.83 531.151 452.816 531.443 452.264C539.206 450.967 565.964 468.578 574.866 469.256C576.206 469.358 576.58 469.342 577.616 468.516C577.872 467.015 576.804 465.481 575.961 464.303C565.992 450.365 536.124 440.556 519.639 440.154C517.4 440.099 515.111 440.067 512.889 440.355C509.631 440.778 506.386 442.19 503.068 441.559C500.816 441.131 500.088 439.901 498.861 438.14C514.685 431.549 531.783 434.214 547.387 440.009C557.869 443.902 576.967 453.361 581.535 464.195C582.256 465.906 582.585 467.724 581.823 469.481C581.052 471.26 578.644 473.12 576.819 473.713C570.288 475.839 552.829 465.414 546.806 462.37C553.572 468.446 566.569 484.219 567.833 493.282C568.08 495.053 567.956 497.043 566.751 498.465C565.617 499.802 563.866 500.473 562.143 500.514C555.854 500.665 549.426 494.031 545.103 489.996C547.863 495.201 550.252 500.509 552.496 505.953C560.653 506.179 568.869 506.003 577.033 506.036C584.801 506.067 592.677 506.354 600.427 505.881C602.027 500.881 604.45 495.939 606.516 491.109L619.641 460.887L660.8 365.749L672.596 338.568C673.525 336.479 675.417 334.069 675.971 331.977C689.862 334.203 710.674 333.319 725.191 333.299L797.129 333.421C806.212 333.426 819.77 332.49 828.226 333.625C829.848 333.843 831.257 334.158 832.265 335.492C831.23 340.749 828.364 346.21 826.356 351.21L813.737 382.493L775.139 478.984C772.494 485.616 759.625 520.331 757.319 522.735C764.276 522.319 771.473 522.723 778.455 522.731L820.847 522.75C828.342 522.748 835.856 522.851 843.348 522.674C852.89 522.449 862.625 521.849 872.151 522.481C874.536 522.639 876.244 523.008 878.328 524.229C878.264 525.323 877.298 526.838 876.569 527.662C875.201 529.207 873.147 529.652 871.18 529.838C866.073 530.321 860.477 529.787 855.312 529.787L819.01 529.795L700.942 529.802L323.143 529.804L125.87 529.81C120.054 529.806 81.8771 530.403 79.9775 529.725C79.7029 529.627 79.17 529.048 78.9198 528.839C78.2309 527.381 78.0819 526.29 77.998 524.709C79.112 523.643 80.083 523.414 81.5952 523.249C89.4499 522.393 97.8734 523.056 105.784 523.023L153.161 522.75L207.532 428.929L224.349 399.634C229.549 390.381 234.603 380.7 240.729 372.038C238.587 371.852 236.432 371.649 234.318 371.252C218.125 368.207 202.399 357.716 193.245 344.057C181.21 326.101 178.405 301.899 182.571 280.984C185.653 265.509 193.124 250.493 202.308 237.758C219.344 214.133 243.31 197.377 262.741 175.992C286.905 149.398 304.622 111.592 334.64 91.665C350.486 81.1458 378.686 74.3976 397.421 78.2031C396.276 77.4135 395.169 76.5747 394.099 75.6868C384.598 67.7416 369.307 52.3234 368.251 39.5257C367.722 33.1258 370.401 27.5028 374.508 22.7563C381.399 14.7923 392.673 10.8191 402.962 10.0638ZM608.589 511.246C607.442 512.097 605.594 513.808 604.174 513.998C600.607 514.477 596.467 514.051 592.841 514.032L567.771 513.951L513.101 513.836C502.227 513.81 490.841 514.279 480.012 513.452C480.306 516.66 480.559 519.871 480.77 523.085L620.859 522.77C664.1 522.773 707.389 523.214 750.623 522.656L750.838 522.511C750.846 522.417 750.851 522.323 750.862 522.229C751.299 518.353 762.838 492.384 765.165 486.713C771.393 471.536 824.012 344.049 823.585 340.496C814.123 340.627 804.631 340.118 795.164 340.038L720.872 339.308L695.015 339.002C690.461 338.955 685.376 338.492 680.888 339.219C680.958 339.929 680.98 340.428 680.741 341.116C678.306 348.117 674.89 355.021 671.981 361.867L655.08 401.634L608.589 511.246Z" fill="white"/>
<path d="M726.277 409.552C727.922 409.276 729.609 409.046 731.275 409.283C732.851 409.507 734.762 410.375 735.713 411.697C736.268 412.47 736.184 412.711 736.076 413.596C735.681 414.018 735.255 414.477 734.761 414.785C732.828 415.989 730.385 415.131 728.325 414.735C727.569 415.399 726.343 415.713 725.445 416.217C722.79 417.708 720.023 419.851 718.072 422.2C712.601 428.788 708.241 440.57 709.208 449.089C709.379 450.603 709.858 452.24 711.162 453.162C712.278 453.951 713.7 454.013 715.009 453.821C724.492 452.429 727.126 440.438 731.998 433.982C732.837 432.871 733.33 432.626 734.687 432.432C735.101 432.646 735.612 432.899 735.921 433.256C736.837 434.317 736.785 435.013 736.613 436.274L738.206 437.297C738.452 438.411 738.39 438.796 738.011 439.857C735.372 447.239 727.755 455.804 720.721 459.051C717.42 460.575 713.629 461.09 710.179 459.713C707.775 458.754 705.994 456.924 704.993 454.557C702.122 447.768 703.992 438.557 706.597 431.991C710.254 422.773 716.945 413.535 726.277 409.552Z" fill="white"/>
<path d="M600.42 7.93873C602.16 7.85425 603.901 7.81242 605.643 7.81324C607.385 7.81408 609.126 7.85757 610.866 7.94371C612.605 8.02986 614.342 8.15856 616.076 8.32982C617.809 8.50108 619.538 8.71469 621.261 8.97064C622.984 9.2266 624.699 9.5246 626.408 9.86464C628.117 10.2047 629.816 10.5863 631.505 11.0097C633.195 11.433 634.874 11.8974 636.541 12.403C638.208 12.9086 639.861 13.4547 641.502 14.0413C643.142 14.6279 644.767 15.2543 646.376 15.9205C647.986 16.5867 649.579 17.292 651.154 18.0363C652.729 18.7805 654.284 19.5629 655.821 20.3835C657.358 21.204 658.873 22.0617 660.368 22.9565C661.863 23.8513 663.335 24.7821 664.784 25.7491C666.233 26.716 667.658 27.7178 669.058 28.7546C670.458 29.7914 671.832 30.8618 673.179 31.9659C674.527 33.0699 675.847 34.2064 677.139 35.3752C678.431 36.5439 679.694 37.7436 680.927 38.9742C682.16 40.2048 683.362 41.4649 684.534 42.7545C685.705 44.0441 686.844 45.3615 687.951 46.7069C689.058 48.0523 690.132 49.424 691.171 50.822C692.211 52.22 693.216 53.6426 694.186 55.0898C695.156 56.537 696.09 58.0072 696.988 59.5002C697.886 60.9932 698.747 62.5073 699.571 64.0425C700.395 65.5777 701.181 67.1321 701.928 68.7059C702.676 70.2796 703.385 71.8707 704.055 73.4791C704.724 75.0875 705.354 76.7114 705.945 78.3508C706.535 79.9901 707.085 81.6429 707.594 83.3092C708.103 84.9754 708.572 86.6532 708.999 88.3424C709.426 90.0316 709.812 91.7302 710.155 93.4383C710.499 95.1464 710.801 96.8619 711.061 98.5849C711.321 100.308 711.539 102.036 711.714 103.77C711.889 105.503 712.022 107.24 712.112 108.98C712.202 110.72 712.25 112.461 712.255 114.204C712.26 115.946 712.222 117.687 712.141 119.428C712.061 121.169 711.938 122.906 711.772 124.641C711.607 126.376 711.399 128.105 711.149 129.829C710.898 131.553 710.606 133.27 710.272 134.98C709.937 136.691 709.561 138.392 709.144 140.083C708.726 141.774 708.267 143.455 707.767 145.124C707.267 146.793 706.727 148.449 706.146 150.091C705.565 151.734 704.944 153.361 704.283 154.974C703.622 156.586 702.922 158.181 702.183 159.759C701.444 161.337 700.667 162.896 699.852 164.435C699.037 165.975 698.184 167.494 697.295 168.992C696.405 170.49 695.479 171.965 694.517 173.418C693.555 174.871 692.558 176.299 691.526 177.703C690.494 179.106 689.428 180.484 688.329 181.836C687.23 183.187 686.098 184.511 684.934 185.807C683.77 187.103 682.575 188.37 681.348 189.608C680.122 190.845 678.866 192.052 677.581 193.228C676.295 194.404 674.981 195.548 673.64 196.659C672.299 197.771 670.931 198.849 669.537 199.894C668.143 200.938 666.724 201.948 665.28 202.923C663.837 203.898 662.37 204.837 660.88 205.74C659.39 206.643 657.879 207.51 656.347 208.339C654.815 209.168 653.264 209.959 651.693 210.712C650.122 211.465 648.533 212.179 646.928 212.854C645.322 213.529 643.7 214.165 642.063 214.761C640.426 215.357 638.776 215.912 637.112 216.427C635.447 216.942 633.771 217.416 632.084 217.849C630.397 218.282 628.7 218.673 626.993 219.022C625.287 219.371 623.573 219.679 621.851 219.945C620.13 220.21 618.403 220.434 616.67 220.615C614.937 220.796 613.201 220.934 611.462 221.03C609.715 221.126 607.967 221.179 606.218 221.19C604.469 221.2 602.72 221.167 600.973 221.092C599.225 221.016 597.48 220.897 595.739 220.736C593.997 220.574 592.26 220.37 590.528 220.123C588.797 219.876 587.072 219.586 585.354 219.254C583.637 218.922 581.929 218.548 580.23 218.132C578.531 217.716 576.843 217.258 575.166 216.759C573.489 216.26 571.826 215.72 570.176 215.139C568.526 214.558 566.891 213.937 565.272 213.276C563.652 212.615 562.05 211.914 560.465 211.173C558.88 210.433 557.314 209.654 555.767 208.837C554.22 208.02 552.695 207.165 551.19 206.272C549.685 205.38 548.204 204.451 546.745 203.486C545.286 202.521 543.852 201.52 542.442 200.484C541.032 199.448 539.649 198.378 538.292 197.274C536.935 196.17 535.605 195.033 534.304 193.864C533.003 192.695 531.731 191.494 530.489 190.262C529.247 189.03 528.036 187.768 526.856 186.477C525.676 185.185 524.528 183.865 523.413 182.517C522.298 181.169 521.216 179.794 520.169 178.393C519.121 176.992 518.108 175.566 517.131 174.115C516.154 172.664 515.213 171.189 514.308 169.692C513.403 168.195 512.536 166.676 511.705 165.136C510.875 163.596 510.083 162.036 509.33 160.457C508.577 158.878 507.862 157.282 507.187 155.667C506.512 154.053 505.878 152.423 505.283 150.778C504.688 149.132 504.134 147.473 503.621 145.8C503.108 144.127 502.636 142.443 502.206 140.747C501.775 139.052 501.387 137.346 501.04 135.631C500.694 133.916 500.39 132.193 500.128 130.463C499.867 128.733 499.648 126.998 499.471 125.257C499.295 123.516 499.162 121.772 499.071 120.025C498.98 118.278 498.933 116.529 498.928 114.779C498.923 113.03 498.962 111.281 499.044 109.533C499.125 107.785 499.25 106.04 499.417 104.299C499.584 102.557 499.794 100.82 500.047 99.0894C500.3 97.358 500.595 95.6339 500.932 93.9171C501.269 92.2003 501.649 90.4928 502.071 88.7947C502.492 87.0965 502.955 85.4098 503.46 83.7344C503.964 82.059 504.509 80.3971 505.096 78.7486C505.682 77.1 506.308 75.4669 506.975 73.8492C507.642 72.2315 508.348 70.6312 509.093 69.0482C509.838 67.4652 510.621 65.9016 511.444 64.3572C512.266 62.8128 513.126 61.2895 514.023 59.7875C514.92 58.2854 515.853 56.8063 516.823 55.3502C517.793 53.894 518.798 52.4625 519.838 51.0559C520.879 49.6492 521.953 48.2689 523.061 46.9151C524.169 45.5613 525.31 44.2355 526.483 42.9379C527.656 41.6401 528.861 40.3721 530.097 39.1337C531.333 37.8953 532.598 36.688 533.893 35.5119C535.188 34.3357 536.512 33.1922 537.863 32.0812C539.214 30.9702 540.592 29.8931 541.997 28.8499C543.401 27.8067 544.83 26.7986 546.284 25.8258C547.738 24.8529 549.215 23.9164 550.715 23.0162C552.215 22.116 553.736 21.2532 555.279 20.428C556.821 19.6026 558.383 18.8157 559.964 18.0673C561.545 17.3188 563.144 16.6097 564.76 15.9399C566.376 15.2701 568.007 14.6404 569.654 14.0509C571.301 13.4614 572.962 12.9128 574.636 12.405C576.31 11.8972 577.995 11.4309 579.692 11.0061C581.389 10.5812 583.096 10.1983 584.811 9.85745C586.527 9.51659 588.25 9.21812 589.981 8.96204C591.711 8.70597 593.447 8.49261 595.188 8.32195C596.929 8.1513 598.673 8.02356 600.42 7.93873ZM613.349 213.164C614.976 213.023 616.598 212.842 618.216 212.621C619.835 212.4 621.446 212.14 623.051 211.84C624.656 211.54 626.253 211.201 627.842 210.823C629.431 210.444 631.009 210.027 632.578 209.572C634.146 209.116 635.702 208.622 637.246 208.09C638.79 207.557 640.32 206.987 641.835 206.38C643.351 205.773 644.851 205.129 646.336 204.448C647.821 203.767 649.287 203.05 650.736 202.297C652.185 201.544 653.615 200.756 655.026 199.933C656.437 199.11 657.826 198.252 659.194 197.361C660.563 196.47 661.909 195.545 663.232 194.588C664.555 193.631 665.853 192.641 667.128 191.62C668.403 190.599 669.652 189.547 670.875 188.465C672.098 187.382 673.293 186.27 674.461 185.129C675.63 183.988 676.77 182.819 677.881 181.622C678.992 180.425 680.073 179.201 681.124 177.951C682.175 176.7 683.194 175.425 684.183 174.125C685.171 172.825 686.127 171.501 687.05 170.154C687.974 168.807 688.864 167.438 689.72 166.047C690.577 164.656 691.398 163.245 692.185 161.814C692.972 160.383 693.724 158.933 694.439 157.465C695.155 155.996 695.835 154.511 696.478 153.01C697.121 151.509 697.726 149.992 698.295 148.461C698.864 146.93 699.395 145.386 699.888 143.829C700.381 142.272 700.835 140.703 701.251 139.123C701.667 137.544 702.044 135.955 702.382 134.357C702.72 132.759 703.018 131.154 703.277 129.541C703.536 127.928 703.756 126.31 703.936 124.686C704.116 123.063 704.256 121.436 704.355 119.806C704.455 118.175 704.515 116.543 704.535 114.91C704.555 113.277 704.535 111.644 704.475 110.012C704.414 108.379 704.314 106.749 704.174 105.122C704.034 103.495 703.854 101.872 703.634 100.253C703.414 98.6345 703.155 97.0223 702.856 95.4165C702.557 93.8107 702.218 92.2132 701.841 90.624C701.464 89.0348 701.048 87.4558 700.593 85.887C700.138 84.3182 699.645 82.7615 699.114 81.2169C698.583 79.6723 698.014 78.1416 697.408 76.625C696.801 75.1083 696.158 73.6074 695.478 72.1224C694.798 70.6372 694.082 69.1697 693.33 67.7198C692.578 66.2698 691.791 64.8392 690.969 63.4279C690.147 62.0166 689.291 60.6263 688.4 59.2571C687.51 57.8877 686.587 56.5411 685.63 55.2172C684.673 53.8932 683.685 52.5936 682.665 51.3182C681.645 50.0428 680.594 48.7931 679.512 47.5693C678.431 46.3455 677.32 45.1489 676.18 43.9796C675.039 42.8103 673.871 41.6697 672.675 40.5578C671.479 39.4458 670.256 38.3638 669.007 37.312C667.758 36.26 666.483 35.2394 665.184 34.2501C663.885 33.2607 662.562 32.3038 661.215 31.3794C659.869 30.455 658.501 29.5641 657.11 28.7069C655.72 27.8496 654.31 27.027 652.88 26.239C651.449 25.451 650 24.6985 648.533 23.9817C647.066 23.2647 645.582 22.5843 644.081 21.9403C642.58 21.2962 641.065 20.6894 639.534 20.1198C638.003 19.5501 636.46 19.0183 634.903 18.5245C633.347 18.0306 631.779 17.5752 630.2 17.1584C628.621 16.7415 627.033 16.3636 625.436 16.0247C623.838 15.6857 622.233 15.3862 620.621 15.1261C619.009 14.8659 617.391 14.6455 615.768 14.4648C614.145 14.284 612.519 14.1432 610.889 14.0424C609.259 13.9415 607.628 13.8807 605.995 13.8599C604.362 13.8391 602.729 13.8583 601.098 13.9177C599.466 13.977 597.836 14.0763 596.209 14.2157C594.581 14.3551 592.957 14.5344 591.338 14.7536C589.718 14.9728 588.105 15.2316 586.498 15.5301C584.891 15.8285 583.293 16.1662 581.703 16.5432C580.113 16.9202 578.533 17.336 576.963 17.7906C575.394 18.2451 573.836 18.7379 572.29 19.2691C570.745 19.8002 569.213 20.3689 567.696 20.9753C566.178 21.5816 564.676 22.2248 563.19 22.905C561.704 23.5851 560.236 24.3013 558.785 25.0536C557.334 25.8058 555.903 26.5933 554.49 27.4159C553.078 28.2385 551.687 29.0952 550.317 29.9862C548.947 30.8771 547.6 31.8011 546.275 32.7583C544.95 33.7154 543.65 34.7045 542.373 35.7255C541.097 36.7465 539.847 37.7982 538.622 38.8807C537.397 39.9631 536.2 41.0749 535.031 42.2162C533.861 43.3574 532.72 44.5267 531.607 45.7241C530.494 46.9214 529.412 48.1453 528.359 49.3958C527.307 50.6463 526.286 51.9219 525.296 53.2226C524.306 54.5232 523.349 55.8474 522.424 57.1951C521.499 58.5427 520.608 59.9123 519.751 61.3039C518.894 62.6953 518.071 64.107 517.282 65.5389C516.494 66.9708 515.742 68.4212 515.025 69.8901C514.308 71.3589 513.627 72.8445 512.983 74.3468C512.339 75.8491 511.732 77.3663 511.163 78.8984C510.593 80.4305 510.061 81.9757 509.568 83.5339C509.074 85.0921 508.619 86.6615 508.202 88.2421C507.786 89.8227 507.409 91.4125 507.07 93.0117C506.731 94.6108 506.432 96.2173 506.172 97.8312C505.913 99.445 505.693 101.064 505.513 102.689C505.333 104.314 505.193 105.942 505.092 107.573C504.992 109.204 504.932 110.837 504.912 112.472C504.892 114.107 504.912 115.741 504.972 117.374C505.033 119.007 505.133 120.638 505.273 122.267C505.414 123.896 505.594 125.52 505.814 127.139C506.034 128.759 506.294 130.372 506.593 131.979C506.892 133.586 507.23 135.185 507.608 136.775C507.986 138.366 508.403 139.946 508.858 141.515C509.313 143.085 509.807 144.643 510.339 146.189C510.87 147.734 511.44 149.266 512.047 150.783C512.654 152.301 513.298 153.803 513.979 155.289C514.66 156.775 515.376 158.243 516.129 159.694C516.882 161.145 517.671 162.576 518.494 163.988C519.317 165.4 520.174 166.791 521.065 168.161C521.957 169.531 522.882 170.878 523.839 172.203C524.797 173.528 525.787 174.828 526.808 176.104C527.829 177.379 528.881 178.629 529.964 179.854C531.047 181.078 532.16 182.275 533.301 183.444C534.443 184.614 535.613 185.755 536.81 186.867C538.008 187.979 539.232 189.061 540.483 190.113C541.734 191.165 543.009 192.186 544.31 193.175C545.611 194.164 546.936 195.121 548.283 196.045C549.631 196.97 551.001 197.86 552.393 198.717C553.784 199.574 555.196 200.396 556.628 201.184C558.06 201.971 559.51 202.723 560.979 203.44C562.448 204.156 563.934 204.836 565.436 205.479C566.939 206.122 568.456 206.728 569.988 207.297C571.52 207.866 573.065 208.397 574.623 208.89C576.181 209.383 577.75 209.837 579.331 210.253C580.912 210.669 582.501 211.046 584.1 211.383C585.699 211.721 587.305 212.019 588.919 212.278C590.532 212.537 592.151 212.756 593.775 212.935C595.4 213.114 597.028 213.254 598.659 213.353C600.29 213.452 601.922 213.512 603.557 213.531C605.191 213.55 606.824 213.529 608.457 213.468C610.09 213.407 611.721 213.305 613.349 213.164Z" fill="white"/>
<path d="M631.427 51.3611C633.944 51.4592 636.309 52.103 638.497 53.3728C642.71 55.8183 648.742 61.1904 649.828 66.1641C650.208 67.9061 649.793 69.0534 648.809 70.478C648.334 70.5163 647.906 70.5445 647.431 70.4829C640.578 69.5928 641.581 68.202 637.752 64.0007C635.84 61.9037 632.411 60.172 629.589 60.1295C624.393 60.0511 619.569 62.8304 615.947 66.3615C597.685 84.1684 590.529 129.263 587.911 153.955C587.377 158.992 586.586 164.021 586.564 169.095C594.223 166.864 601.747 163.89 609.262 161.2L613.679 159.746C614.31 161.98 616.134 166.539 615.277 168.648C610.024 171.765 588.322 180.297 582.636 180.596C581.508 180.656 581.284 180.574 580.441 179.788C578.858 178.312 576.972 172.849 576.963 170.619C576.935 163.916 579.069 155.571 580.164 148.812C584.746 120.554 591.02 82.526 611.448 61.2557C616.843 55.6388 623.501 51.54 631.427 51.3611Z" fill="white"/>
<path d="M571.377 52.7258C574.678 52.3153 578.644 52.9693 581.705 54.227C585.104 55.6235 590.279 59.6349 591.488 63.208C591.836 64.2365 591.658 64.7035 591.187 65.6283C585.918 69.0433 579.354 59.5488 569.427 60.7132C562.24 61.5563 553.062 66.1647 548.484 71.9211C544.829 75.8883 541.933 80.4841 538.224 84.3511C537.052 84.5651 536.904 84.3339 535.882 83.7935L535.498 82.4934C535.979 78.8596 538.416 75.3866 540.541 72.4759C548.353 61.7715 558.102 54.8071 571.377 52.7258Z" fill="white"/>
<path d="M573.112 98.4777C574.12 98.4096 575.235 98.4005 576.215 98.6632C577.485 99.0031 578.726 99.752 579.341 100.947C580.122 102.461 579.727 104.301 579.214 105.834C577.509 110.928 573.888 113.995 569.265 116.363C568.355 116.165 567.397 115.984 566.516 115.677C565.088 115.177 563.906 114.378 563.298 112.946C562.597 111.294 562.948 109.396 563.611 107.793C565.425 103.403 568.822 100.287 573.112 98.4777Z" fill="white"/>
<path d="M617.611 99.8923C618.935 99.8072 620.309 99.9317 621.52 100.522C622.642 101.068 623.468 101.874 623.838 103.083C624.422 104.988 623.698 107.235 622.804 108.943C620.818 112.743 618.119 114.911 614.068 116.136C612.985 116.112 611.753 116.06 610.722 115.711C609.506 115.3 608.324 114.512 607.784 113.31C607.031 111.633 607.51 109.838 608.2 108.23C610.036 103.953 613.41 101.534 617.611 99.8923Z" fill="white"/>
<path d="M591.551 289.655C594.41 291.067 595.821 293.261 597.645 295.741C596.658 299.516 595.187 303.26 594.039 307.002C591.596 315.067 589.217 323.15 586.903 331.253C583.715 342.361 580.652 356.881 576.249 367.236C575.518 367.474 574.783 367.402 574.033 367.275C572.449 367.008 571.858 366.353 571.003 365.131C571.134 358.723 574.403 349.997 576.085 343.648C578.481 334.584 580.794 325.499 583.025 316.392C584.85 309.035 585.939 300.733 588.487 293.673C589.036 292.155 590.461 290.818 591.551 289.655Z" fill="#0885D0"/>
<path d="M502.905 279.1C503.299 279.298 503.65 279.45 504.091 279.514C506.961 279.931 508.482 280.77 510.864 282.373C512.458 298.584 516.76 315.365 520.802 331.153C522.856 339.176 530.814 362.095 530.339 368.435C528.908 368.475 528.51 368.643 527.292 367.825C525.088 363.253 523.723 357.964 522.08 353.154C516.327 336.597 511.249 319.835 506.846 302.868C505.212 296.713 503.008 290.051 502.278 283.725C502.091 282.11 502.468 280.645 502.905 279.1Z" fill="#0885D0"/>
<path d="M445.542 318.227C446.336 318.309 447.195 318.392 447.956 318.642C449.937 319.291 451.997 323.877 453.072 325.707C460.211 337.867 467.007 350.092 474.984 361.747C480.503 369.811 487.805 377.702 492.373 386.262C493.03 387.493 493.194 388.165 492.787 389.499C491.795 389.636 491.401 389.586 490.417 389.324C486.645 386.046 483.555 381.645 480.443 377.742C471.281 366.249 463.193 354.496 454.785 342.466C450.705 336.627 445.874 330.866 442.444 324.651C441.747 323.388 441.475 322.59 441.9 321.175C442.331 319.74 444.314 318.874 445.542 318.227Z" fill="#0885D0"/>
<path d="M358.923 227.606C362.383 228.746 364.064 231.716 367.158 233.21C368.554 233.884 370.413 234.078 371.924 234.43C374.389 235.005 376.741 235.51 378.161 237.808C378.57 239.407 378.22 240.584 377.543 242.061C376.463 244.414 374.976 244.963 372.706 245.783C368.058 246.101 364.158 245.459 360.189 242.948C357.129 241.011 353.37 237.392 352.698 233.667C352.67 233.52 352.65 233.372 352.638 233.223C352.626 233.074 352.622 232.924 352.626 232.775C352.629 232.625 352.641 232.476 352.661 232.328C352.68 232.179 352.708 232.032 352.743 231.887C352.778 231.742 352.82 231.599 352.871 231.458C352.922 231.317 352.979 231.18 353.044 231.045C353.109 230.91 353.181 230.779 353.26 230.652C353.339 230.525 353.424 230.402 353.516 230.284C354.955 228.428 356.741 227.959 358.923 227.606Z" fill="white"/>
<path d="M313.942 365.399C315.202 365.558 316.61 365.677 317.793 366.154C319.138 366.696 319.607 367.43 320.076 368.688C319.216 372.52 308.651 374.89 305.157 376.561C302.717 377.728 300.565 379.211 298.449 380.882C297.805 381.386 297.122 381.999 296.354 382.296C295.427 382.655 295.306 382.441 294.47 382.015C293.403 379.553 294.889 376.489 295.772 374.17C300.65 369.61 307.646 367.191 313.942 365.399Z" fill="white"/>
<path d="M217.523 464.035C218.595 464.13 219.205 464.287 220.169 464.765C220.634 465.401 221.061 465.786 221.131 466.592C221.353 469.164 218.895 472.062 217.273 473.875C213.095 478.544 206.458 483.087 200.05 483.463C199.18 483.215 198.13 482.999 197.322 482.597C196.324 482.101 196.143 481.708 195.848 480.677C198.886 477.784 203.153 475.804 206.729 473.637C210.969 471.067 214.359 467.8 217.523 464.035Z" fill="white"/>
<path d="M297.556 323.142C298.662 323.245 299.748 323.415 300.818 323.722C306.691 325.407 313.344 330.988 316.267 336.319C316.999 337.654 317.515 338.748 317.077 340.258C315.82 341.153 315.483 340.992 313.91 340.938C309.687 339.531 306.529 334.971 302.92 332.403C300.924 330.983 298.611 330.196 296.381 329.23C295.009 328.636 293.632 328.257 293.084 326.732C292.718 325.714 292.83 325.616 293.285 324.622C294.667 323.475 295.849 323.352 297.556 323.142Z" fill="white"/>
<path d="M356.005 310.199L357.793 311.006C358.453 311.972 359.022 312.593 358.853 313.847C358.531 316.242 355.528 318.842 353.756 320.24C348.891 324.078 342.72 326.807 336.469 326.047C335.343 325.537 334.43 325.053 333.497 324.235C333.709 320.599 345.022 318.886 348.041 317.126C350.932 315.44 353.559 312.487 356.005 310.199Z" fill="white"/>
<path d="M278.057 463.296C279.519 463.568 280.008 463.587 281.121 464.534C282.545 467.451 281.806 471.346 281.954 474.514C282.214 480.075 287.645 480.727 291.061 483.856C291.065 485.026 290.762 485.096 289.999 485.937C287.878 486.452 286.055 486.75 283.916 486.102C281.253 485.295 279.234 483.517 277.989 481.035C275.27 475.615 276.152 468.799 278.057 463.296Z" fill="white"/>
<path d="M378.484 171.132C379.41 171.082 380.392 171.105 381.314 171.222C382.835 171.416 383.426 171.935 384.267 173.08C384.318 174.015 384.201 174.71 383.733 175.536C381.296 179.839 375.557 183.084 370.958 184.379C370.081 184.601 368.929 184.543 368.045 184.375C366.962 184.17 366.649 183.785 366.047 182.914C365.956 182.042 365.992 181.333 366.362 180.522C368.528 175.77 373.886 172.994 378.484 171.132Z" fill="white"/>
<path d="M356.101 405.416C356.927 405.81 357.339 406.374 357.768 407.16C359.763 410.819 358.392 416.278 357.151 419.969C355.681 424.336 353.604 428.353 349.357 430.441C348.292 430.408 347.814 430.62 347.057 429.831C346.953 425.439 350.934 420.387 352.181 416.13C352.983 413.389 352.619 410.149 353.123 407.268C354.1 406.05 354.61 405.965 356.101 405.416Z" fill="white"/>
<path d="M266.309 364.198C267.866 364.128 268.973 364.136 270.123 365.282C272.086 367.238 272.63 370.157 272.733 372.815C272.967 378.808 271.494 384.953 267.336 389.378C266.533 389.858 265.688 390.168 264.819 390.501L264.147 390.063C262.992 385.769 266.621 380.628 266.916 376.252C267.148 372.803 265.145 367.212 266.309 364.198Z" fill="white"/>
<path d="M306.408 444.226C310.947 444.018 315.744 444.629 319.844 446.687C322.065 447.802 325.352 450.086 326.047 452.593C326.331 453.618 326.12 453.797 325.647 454.685C324.057 455.263 323.224 454.834 321.623 454.434C319.424 453.068 317.241 451.894 314.751 451.142C311.658 450.207 302.072 449.715 300.283 447.269L300.577 446.407C302.436 444.811 304.026 444.332 306.408 444.226Z" fill="white"/>
<path d="M260.441 442.918L262.276 443.505C262.905 444.238 263.22 444.4 263.141 445.427C262.978 447.555 260.039 450.105 258.503 451.383C252.837 456.094 247.327 458.281 239.985 457.623C238.552 457.298 237.403 456.61 236.133 455.903L235.988 455.201C238.478 452.628 244.697 453.388 248.067 451.969C252.905 449.931 256.65 446.436 260.441 442.918Z" fill="white"/>
<path d="M411.74 180.608C411.897 180.591 412.054 180.568 412.212 180.555C413.847 180.418 415.823 180.86 417.042 181.951C417.388 183.183 417.453 183.734 416.887 184.978C415.092 188.921 410.372 191.557 406.528 192.996C406.284 192.998 406.039 192.999 405.796 192.988C404.081 192.909 402.339 192.405 401.169 191.113C400.872 189.841 400.78 189.259 401.416 188.016C403.354 184.233 407.906 181.871 411.74 180.608Z" fill="white"/>
<path d="M352.684 352.542L353.636 353.043C354.361 354.297 354.561 354.623 354.584 356.052C353.083 358.668 350.013 359.839 348.127 362.122C345.422 365.396 344.739 369.482 341.441 372.431C340.762 371.826 340.021 371.19 339.624 370.355C338.661 368.334 338.984 365.963 339.85 363.974C342.242 358.479 347.269 354.684 352.684 352.542Z" fill="white"/>
<path d="M293.433 410.228C294.884 410.289 295.381 410.399 296.461 411.308C296.551 412.223 296.724 412.568 296.131 413.337C294.754 415.122 292.303 416.571 290.683 418.278C287.207 421.94 284.969 426.331 282.441 430.645C281.329 430.93 281.173 430.764 280.14 430.355C279.32 428.684 279.495 427.012 279.996 425.268C281.989 418.331 287.316 413.559 293.433 410.228Z" fill="white"/>
<path d="M340.111 469.754C340.27 469.82 340.436 469.869 340.589 469.95C342.914 471.176 344.346 473.675 345.029 476.126C346.74 482.262 345.566 488.403 342.555 493.843C341.483 493.653 340.928 493.487 340.091 492.778C339.194 488.367 340.599 483.634 339.998 479.168C339.671 476.737 337.457 473.505 337.915 471.188L340.111 469.754Z" fill="white"/>
<path d="M313.392 393.175C314.358 393.272 315.277 393.532 316.215 393.774C318.148 395.251 318.2 398.14 319.751 400C322.608 403.426 327.663 405.766 329.843 409.566L329.294 410.276C327.549 410.945 326.285 411.319 324.441 410.776C320.342 409.569 316.788 405.775 314.785 402.131C313.129 399.121 312.453 396.53 313.392 393.175Z" fill="white"/>
</svg>
